<?xml version="1.0" encoding="UTF-8" standalone="no"?>
<!-- Created with Inkscape (http://www.inkscape.org/) -->

<svg
   width="210mm"
   height="297mm"
   viewBox="0 0 210 297"
   version="1.1"
   id="svg5"
   inkscape:version="1.2.2 (732a01da63, 2022-12-09)"
   sodipodi:docname="abc.svg"
   xmlns:inkscape="http://www.inkscape.org/namespaces/inkscape"
   xmlns:sodipodi="http://sodipodi.sourceforge.net/DTD/sodipodi-0.dtd"
   xmlns="http://www.w3.org/2000/svg"
   xmlns:svg="http://www.w3.org/2000/svg">
  <sodipodi:namedview
     id="namedview7"
     pagecolor="#505050"
     bordercolor="#eeeeee"
     borderopacity="1"
     inkscape:showpageshadow="0"
     inkscape:pageopacity="0"
     inkscape:pagecheckerboard="0"
     inkscape:deskcolor="#505050"
     inkscape:document-units="mm"
     showgrid="false"
     inkscape:zoom="6.2502245"
     inkscape:cx="138.79502"
     inkscape:cy="61.277799"
     inkscape:window-width="1920"
     inkscape:window-height="1057"
     inkscape:window-x="1912"
     inkscape:window-y="-8"
     inkscape:window-maximized="1"
     inkscape:current-layer="layer1" />
  <defs
     id="defs2" />
  <text
     xml:space="preserve"
     style="font-style:normal;font-weight:normal;font-size:10.5833px;line-height:1.25;font-family:sans-serif;white-space:pre;inline-size:162.618;display:none;fill:#ffffff;fill-opacity:1;stroke:none;stroke-width:0.264583"
     x="14.900798"
     y="19.980616"
     id="text113"
     transform="translate(1.3)" />
  <g
     inkscape:label="Ebene 1"
     inkscape:groupmode="layer"
     id="layer1">
    <path
       style="fill:none;stroke:#000000;stroke-width:0.264583px;stroke-linecap:butt;stroke-linejoin:miter;stroke-opacity:1"
       d="m 17.229048,14.900798 c 0,0 1.312286,-0.338655 1.989595,-0.423318 0.677309,-0.08466 1.693273,0.211659 2.031927,1.100627 0.338654,0.888968 0.169327,4.148518 0.169327,4.148518"
       id="path2525"
       inkscape:label="path2525" />
    <path
       style="fill:none;stroke:#000000;stroke-width:0.264583px;stroke-linecap:butt;stroke-linejoin:miter;stroke-opacity:1"
       d="m 21.462229,16.509407 c 0,0 -2.878563,0.169327 -3.386545,0.550313 -0.507982,0.380987 -0.888968,0.634978 -0.888968,1.650941 0,1.015964 1.566277,1.058296 1.904932,0.9313 0.338654,-0.126995 2.328249,-1.142959 2.328249,-1.142959"
       id="path2529" />
    <path
       style="fill:none;stroke:#000000;stroke-width:0.264583px;stroke-linecap:butt;stroke-linejoin:miter;stroke-opacity:1"
       d="m 34.161772,10.286631 5.079817,-3.4288774 4.063855,6.1804444 -7.154077,4.233182 -6.349772,-7.9583812 10.498291,-5.2491449 7.23874,7.7467221"
       id="path2541" />
    <path
       style="fill:none;stroke:#000000;stroke-width:0.264583px;stroke-linecap:butt;stroke-linejoin:miter;stroke-opacity:1"
       d="M 12.6 1.58 L 12.6 47.9 M 9.76 67.1 L 9.76 62.1 L 14.8 62.1 L 14.8 67.1 L 9.76 67.1"
       id="path2552" />
  </g>
</svg>
